<svg width="155" height="34" viewBox="0 0 155 34" fill="none" xmlns="http://www.w3.org/2000/svg">
<path fill-rule="evenodd" clip-rule="evenodd" d="M22.338 33.507H55.844V0.00100708H22.338V33.507ZM33.507 22.338H44.675V11.169H33.507V22.339V22.338ZM0 22.338H11.169V11.169H0V22.338Z" fill="#D73252"/>
<path fill-rule="evenodd" clip-rule="evenodd" d="M71.342 19.967H77.602L74.455 11.427L71.342 19.967ZM84.563 27.218H80.245L78.805 23.288H70.137L68.698 27.218H64.381L72.346 6.888H76.597L84.563 27.218Z" fill="black"/>
<mask id="mask0_1_2" style="mask-type:alpha" maskUnits="userSpaceOnUse" x="85" y="12" width="16" height="22">
<path d="M85.728 12.647H100.321V33.928H85.728V12.647Z" fill="white"/>
</mask>
<g mask="url(#mask0_1_2)">
<path fill-rule="evenodd" clip-rule="evenodd" d="M95.585 17.12C94.95 16.374 94.13 16.001 93.125 16.001C92.165 16.001 91.374 16.391 90.749 17.171C90.124 17.95 89.812 18.938 89.812 20.135C89.812 21.333 90.118 22.309 90.732 23.066C91.346 23.823 92.143 24.201 93.126 24.201C94.152 24.201 94.977 23.834 95.602 23.101C96.227 22.366 96.539 21.378 96.539 20.135C96.539 18.87 96.221 17.865 95.585 17.12V17.12ZM100.321 26.662C100.321 28.762 99.696 30.457 98.447 31.745C97.197 33.032 95.367 33.928 93.025 33.928C90.046 33.928 87.758 32.551 86.057 30.222L88.25 28.147C89.579 29.648 91.645 31.167 94.105 30.331C95.917 29.715 96.305 27.984 96.305 26.764V25.624H96.138C96.1012 25.6934 96.0618 25.7615 96.02 25.828C95.965 25.918 95.83 26.076 95.618 26.302C95.4045 26.5294 95.1628 26.7286 94.899 26.895C94.631 27.065 94.252 27.217 93.761 27.353C93.2372 27.4926 92.697 27.5609 92.155 27.556C90.303 27.556 88.769 26.856 87.552 25.456C86.336 24.054 85.728 22.258 85.728 20.066C85.728 17.83 86.348 16.034 87.586 14.679C88.824 13.325 90.392 12.647 92.289 12.647C92.9115 12.6406 93.5315 12.7262 94.129 12.901C94.687 13.071 95.133 13.279 95.468 13.528C95.803 13.776 96.088 14.025 96.322 14.273C96.556 14.522 96.718 14.725 96.807 14.883L96.941 15.154H97.075L97.71 12.986H100.32V26.662H100.321Z" fill="black"/>
</g>
<path fill-rule="evenodd" clip-rule="evenodd" d="M112.783 23.185C113.419 22.417 113.737 21.389 113.737 20.102C113.737 18.837 113.419 17.815 112.783 17.035C112.147 16.255 111.338 15.866 110.356 15.866C109.352 15.866 108.532 16.256 107.896 17.036C107.26 17.815 106.942 18.836 106.942 20.102C106.942 21.389 107.254 22.417 107.879 23.185C108.504 23.953 109.329 24.337 110.356 24.337C111.338 24.337 112.146 23.953 112.783 23.185V23.185ZM115.561 25.506C114.144 26.873 112.409 27.556 110.356 27.556C108.281 27.556 106.535 26.873 105.118 25.506C103.701 24.14 102.993 22.361 102.993 20.17C102.993 17.956 103.701 16.148 105.118 14.748C106.535 13.348 108.281 12.648 110.356 12.648C112.409 12.648 114.144 13.348 115.561 14.748C116.977 16.148 117.686 17.956 117.686 20.17C117.686 22.36 116.977 24.14 115.561 25.506V25.506ZM129.491 16.408H127.618C126.658 16.408 125.883 16.719 125.291 17.34C124.701 17.962 124.405 18.803 124.405 19.864V27.217H120.388V12.987H122.898L123.467 15.087H123.668C124.405 13.687 125.71 12.987 127.584 12.987H129.491V16.408V16.408Z" fill="black"/>
<mask id="mask1_1_2" style="mask-type:alpha" maskUnits="userSpaceOnUse" x="0" y="0" width="155" height="34">
<path d="M0 33.929H154.94V0H0V33.929Z" fill="white"/>
</mask>
<g mask="url(#mask1_1_2)">
<path fill-rule="evenodd" clip-rule="evenodd" d="M131.708 27.218H135.725V12.985H131.708V27.217V27.218ZM132.076 10.106C131.63 9.676 131.406 9.123 131.406 8.446C131.406 7.768 131.63 7.209 132.076 6.768C132.522 6.328 133.081 6.108 133.75 6.108C134.42 6.108 134.983 6.328 135.44 6.768C135.898 7.208 136.126 7.768 136.126 8.446C136.126 9.123 135.898 9.676 135.44 10.106C134.983 10.536 134.42 10.75 133.75 10.75C133.08 10.75 132.522 10.535 132.076 10.106ZM140.344 25.455C138.982 24.055 138.302 22.271 138.302 20.102C138.302 17.933 138.982 16.148 140.344 14.748C141.704 13.348 143.49 12.648 145.699 12.648C146.592 12.648 147.406 12.755 148.142 12.968C148.879 13.184 149.392 13.393 149.682 13.596L150.117 13.935L149.079 16.849C148.209 16.284 147.205 16.002 146.067 16.002C144.974 16.002 144.081 16.375 143.389 17.12C142.698 17.865 142.352 18.86 142.352 20.102C142.352 21.367 142.698 22.366 143.389 23.1C144.081 23.835 144.974 24.202 146.067 24.202C146.58 24.202 147.087 24.128 147.59 23.982C148.092 23.835 148.466 23.694 148.711 23.558L149.079 23.355L150.084 26.235C149.972 26.325 149.81 26.444 149.598 26.591C149.386 26.737 148.906 26.935 148.158 27.183C147.411 27.432 146.592 27.556 145.699 27.556C143.489 27.556 141.705 26.856 140.344 25.456" fill="black"/>
<path fill-rule="evenodd" clip-rule="evenodd" d="M154.94 26.105C154.94 26.4898 154.787 26.8589 154.515 27.131C154.243 27.4031 153.874 27.556 153.489 27.556C153.104 27.556 152.735 27.4031 152.463 27.131C152.191 26.8589 152.038 26.4898 152.038 26.105C152.038 25.7202 152.191 25.3511 152.463 25.079C152.735 24.8069 153.104 24.654 153.489 24.654C153.874 24.654 154.243 24.8069 154.515 25.079C154.787 25.3511 154.94 25.7202 154.94 26.105Z" fill="white"/>
<path fill-rule="evenodd" clip-rule="evenodd" d="M153.49 24.655C153.105 24.655 152.736 24.8079 152.464 25.08C152.192 25.3521 152.039 25.7212 152.039 26.106C152.039 26.4908 152.192 26.8599 152.464 27.132C152.736 27.4041 153.105 27.557 153.49 27.557C153.875 27.557 154.244 27.4041 154.516 27.132C154.788 26.8599 154.941 26.4908 154.941 26.106C154.941 25.7212 154.788 25.3521 154.516 25.08C154.244 24.8079 153.875 24.655 153.49 24.655ZM153.49 24.91C153.797 24.9254 154.086 25.058 154.297 25.2805C154.509 25.5031 154.627 25.7984 154.627 26.1055C154.627 26.4126 154.509 26.7079 154.297 26.9305C154.086 27.153 153.797 27.2856 153.49 27.301C153.179 27.2921 152.884 27.1624 152.667 26.9392C152.45 26.7161 152.328 26.4172 152.328 26.106C152.328 25.7948 152.449 25.4958 152.666 25.2725C152.883 25.0491 153.178 24.9191 153.489 24.91" fill="black"/>
<path fill-rule="evenodd" clip-rule="evenodd" d="M152.562 25.707H153.295V25.899H153.039V26.629H152.819V25.899H152.562V25.707ZM154.058 26.12L153.862 26.384H153.77L153.572 26.118V26.628H153.354L153.355 25.706H153.533L153.815 26.102L154.098 25.706H154.275L154.277 26.629H154.058V26.12Z" fill="black"/>
</g>
</svg>
